<svg xmlns="http://www.w3.org/2000/svg" width="1920" height="1080" viewBox="0 0 1920 1080">
  <rect width="1920" height="1080" fill="#070913"/>
  <rect x="0" y="0" width="360" height="1080" fill="#0f172a" opacity="0.72" stroke="#22D3EE"/>
  <rect x="360" y="0" width="1080" height="1080" fill="#111827" opacity="0.35" stroke="#475569"/>
  <rect x="1440" y="0" width="480" height="1080" fill="#0f172a" opacity="0.72" stroke="#D946EF"/>

  <text x="180" y="34" fill="#22D3EE" text-anchor="middle" font-size="24" font-family="sans-serif">左侧道法区</text>
  <text x="900" y="34" fill="#CBD5E1" text-anchor="middle" font-size="24" font-family="sans-serif">中央战斗区</text>
  <text x="1680" y="34" fill="#D946EF" text-anchor="middle" font-size="24" font-family="sans-serif">右侧外物区</text>

  <rect x="30" y="60" width="300" height="145" rx="12" fill="#020617" opacity="0.88" stroke="#22D3EE"/>
  <text x="50" y="92" fill="#FFFFFF" font-size="20" font-family="sans-serif">P1 核心状态</text>
  <rect x="50" y="115" width="260" height="16" rx="8" fill="#7f1d1d"/>
  <rect x="50" y="115" width="210" height="16" rx="8" fill="#F87171"/>
  <text x="50" y="158" fill="#38BDF8" font-size="16" font-family="sans-serif">真元 / 法术资源</text>
  <rect x="50" y="170" width="260" height="12" rx="6" fill="#0c4a6e"/>
  <rect x="50" y="170" width="160" height="12" rx="6" fill="#38BDF8"/>

  <rect x="560" y="20" width="800" height="48" rx="12" fill="#052e2b" opacity="0.9" stroke="#34D399"/>
  <text x="900" y="50" fill="#34D399" font-size="22" text-anchor="middle" font-family="sans-serif">团队灵气经验：顿悟进度</text>
  <rect x="620" y="76" width="680" height="36" rx="10" fill="#111827" opacity="0.95" stroke="#EF4444"/>
  <text x="960" y="101" fill="#EF4444" font-size="20" text-anchor="middle" font-family="sans-serif">Boss 血条 / 阶段警告</text>

  <rect x="30" y="240" width="300" height="340" rx="12" fill="#020617" opacity="0.88" stroke="#38BDF8"/>
  <text x="50" y="272" fill="#FFFFFF" font-size="20" font-family="sans-serif">法术栏 J / K / L / I</text>
  <g font-family="sans-serif" font-size="16">
    <rect x="55" y="300" width="250" height="52" rx="8" fill="#0f172a" stroke="#38BDF8"/><text x="75" y="332" fill="#FFFFFF">J 五雷正法 Ready</text>
    <rect x="55" y="365" width="250" height="52" rx="8" fill="#0f172a" stroke="#64748B"/><text x="75" y="397" fill="#CBD5E1">K 八卦剑阵 CD 3.2s</text>
    <rect x="55" y="430" width="250" height="52" rx="8" fill="#0f172a" stroke="#64748B"/><text x="75" y="462" fill="#CBD5E1">L 红莲业火 气不足</text>
    <rect x="55" y="495" width="250" height="52" rx="8" fill="#0f172a" stroke="#38BDF8"/><text x="75" y="527" fill="#FFFFFF">I 袖里乾坤 Ready</text>
  </g>

  <rect x="1470" y="60" width="390" height="145" rx="12" fill="#020617" opacity="0.88" stroke="#FDE68A"/>
  <text x="1490" y="92" fill="#FDE68A" font-size="20" font-family="sans-serif">修为 / 境界</text>
  <text x="1490" y="128" fill="#FFFFFF" font-size="18" font-family="sans-serif">练气二层 218 / 380</text>
  <rect x="1490" y="150" width="330" height="14" rx="7" fill="#78350f"/>
  <rect x="1490" y="150" width="195" height="14" rx="7" fill="#FDE68A"/>

  <rect x="1470" y="240" width="390" height="250" rx="12" fill="#020617" opacity="0.88" stroke="#F59E0B"/>
  <text x="1490" y="272" fill="#FFFFFF" font-size="20" font-family="sans-serif">丹药 1 / 2 / 3</text>
  <g font-family="sans-serif" font-size="16">
    <rect x="1490" y="300" width="330" height="52" rx="8" fill="#0f172a" stroke="#F59E0B"/><text x="1510" y="332" fill="#FFFFFF">1 回春丹 炼化中 7.2s</text>
    <rect x="1490" y="365" width="330" height="52" rx="8" fill="#0f172a" stroke="#F59E0B"/><text x="1510" y="397" fill="#FFFFFF">2 燃血丹 Ready</text>
    <rect x="1490" y="430" width="330" height="52" rx="8" fill="#0f172a" stroke="#64748B"/><text x="1510" y="462" fill="#CBD5E1">3 空鼎</text>
  </g>

  <rect x="1470" y="520" width="390" height="220" rx="12" fill="#020617" opacity="0.88" stroke="#A855F7"/>
  <text x="1490" y="552" fill="#FFFFFF" font-size="20" font-family="sans-serif">本命法宝 / 灵宝</text>
  <text x="1490" y="590" fill="#CBD5E1" font-size="16" font-family="sans-serif">[外] 青霜飞剑 ★★</text>
  <text x="1490" y="625" fill="#CBD5E1" font-size="16" font-family="sans-serif">[内] 紫阳葫芦 ★</text>
  <text x="1490" y="670" fill="#CBD5E1" font-size="16" font-family="sans-serif">灵宝：剑阵 / 玉佩 / 金蟾 / 空</text>

  <circle cx="900" cy="820" r="9" fill="#FFFFFF" stroke="#22D3EE" stroke-width="3"/>
  <text x="900" y="850" fill="#CBD5E1" font-size="16" text-anchor="middle" font-family="sans-serif">玩家判定点示意：任何常驻 UI 不得覆盖下方高频操作区</text>

  <rect x="500" y="930" width="840" height="48" rx="12" fill="#111827" opacity="0.9" stroke="#EF4444"/>
  <text x="920" y="962" fill="#EF4444" font-size="22" text-anchor="middle" font-family="sans-serif">短提示区：雷劫 / 救援 / 连携 / 真元不足</text>
</svg>